<svg width="24" height="24" viewBox="0 0 24 24" fill="none" xmlns="http://www.w3.org/2000/svg">
<path d="M12 2C6.47715 2 2 6.47715 2 12C2 17.5228 6.47715 22 12 22C17.5228 22 22 17.5228 22 12C22 6.47715 17.5228 2 12 2ZM12 4C16.4183 4 20 7.58172 20 12C20 16.4183 16.4183 20 12 20C7.58172 20 4 16.4183 4 12C4 7.58172 7.58172 4 12 4ZM12 6V18" stroke="#0047AB" stroke-width="2" stroke-linecap="round" stroke-linejoin="round"/>
<path d="M7.75 12C7.75 14.3414 9.65863 16.25 12 16.25C14.3414 16.25 16.25 14.3414 16.25 12C16.25 9.65863 14.3414 7.75 12 7.75C9.65863 7.75 7.75 9.65863 7.75 12Z" fill="#0047AB"/>
</svg>